<svg aria-hidden="true" style="position: absolute; width: 0; height: 0; overflow: hidden;" version="1.1" xmlns="http://www.w3.org/2000/svg" xmlns:xlink="http://www.w3.org/1999/xlink">
<defs>
<symbol id="icon-arrow-left" viewBox="0 0 32 32">
<path stroke-linejoin="round" stroke-linecap="round" stroke-miterlimit="4" stroke-width="1.3333" d="M26.667 16h-21.333"></path>
<path stroke-linejoin="round" stroke-linecap="round" stroke-miterlimit="4" stroke-width="1.3333" d="M13.333 24l-8-8 8-8"></path>
</symbol>
<symbol id="icon-camera_alt-black-24dp-1" viewBox="0 0 32 32">
<path fill="#bdbdbd" style="fill: var(--color1, #bdbdbd)" d="M16 20.267c2.356 0 4.267-1.91 4.267-4.267s-1.91-4.267-4.267-4.267c-2.356 0-4.267 1.91-4.267 4.267s1.91 4.267 4.267 4.267z"></path>
<path fill="#bdbdbd" style="fill: var(--color1, #bdbdbd)" d="M12 2.667l-2.44 2.667h-4.227c-1.467 0-2.667 1.2-2.667 2.667v16c0 1.467 1.2 2.667 2.667 2.667h21.333c1.467 0 2.667-1.2 2.667-2.667v-16c0-1.467-1.2-2.667-2.667-2.667h-4.227l-2.44-2.667h-8zM16 22.667c-3.68 0-6.667-2.987-6.667-6.667s2.987-6.667 6.667-6.667c3.68 0 6.667 2.987 6.667 6.667s-2.987 6.667-6.667 6.667z"></path>
</symbol>
<symbol id="icon-log-out" viewBox="0 0 32 32">
<path fill="none" stroke="#bdbdbd" style="stroke: var(--color1, #bdbdbd)" stroke-linejoin="round" stroke-linecap="round" stroke-miterlimit="4" stroke-width="1.3333" d="M13.333 29.333h-6.667c-1.473 0-2.667-1.194-2.667-2.667v-21.333c0-1.473 1.194-2.667 2.667-2.667h6.667"></path>
<path fill="none" stroke="#bdbdbd" style="stroke: var(--color1, #bdbdbd)" stroke-linejoin="round" stroke-linecap="round" stroke-miterlimit="4" stroke-width="1.3333" d="M22.667 21.333l5.333-5.333-5.333-5.333"></path>
<path fill="none" stroke="#bdbdbd" style="stroke: var(--color1, #bdbdbd)" stroke-linejoin="round" stroke-linecap="round" stroke-miterlimit="4" stroke-width="1.3333" d="M28 16h-16"></path>
</symbol>
<symbol id="icon-map-pin" viewBox="0 0 32 32">
<path fill="none" stroke="#bdbdbd" style="stroke: var(--color1, #bdbdbd)" stroke-linejoin="round" stroke-linecap="round" stroke-miterlimit="4" stroke-width="1.3333" d="M26.667 13.818c0 7.636-10.667 14.182-10.667 14.182s-10.667-6.545-10.667-14.182c0-5.422 4.776-9.818 10.667-9.818s10.667 4.396 10.667 9.818v0z"></path>
<path fill="none" stroke="#bdbdbd" style="stroke: var(--color1, #bdbdbd)" stroke-linejoin="round" stroke-linecap="round" stroke-miterlimit="4" stroke-width="1.3333" d="M16 18.667c2.209 0 4-1.791 4-4s-1.791-4-4-4-4 1.791-4 4c0 2.209 1.791 4 4 4z"></path>
</symbol>
<symbol id="icon-message-circle" viewBox="0 0 32 32">
<path fill="none" stroke="#bdbdbd" style="stroke: var(--color1, #bdbdbd)" stroke-linejoin="round" stroke-linecap="round" stroke-miterlimit="4" stroke-width="1.3333" d="M4 15.333c-0.005 1.76 0.407 3.496 1.2 5.067 1.919 3.839 5.841 6.265 10.133 6.267 1.76 0.005 3.496-0.407 5.067-1.2l7.6 2.533-2.533-7.6c0.793-1.571 1.205-3.307 1.2-5.067-0.002-4.292-2.428-8.215-6.267-10.133-1.571-0.793-3.307-1.205-5.067-1.2h-0.667c-5.754 0.317-10.349 4.912-10.667 10.667v0.667z"></path>
</symbol>
<symbol id="icon-thumbs-up" viewBox="0 0 32 32">
<path fill="#ff6c00" style="fill: var(--color2, #ff6c00)" d="M17.819 10.133h-0.667c0 0.368 0.298 0.667 0.667 0.667v-0.667zM17.819 5.867v0zM14.365 2.667v-0.667c-0.257 0-0.49 0.147-0.601 0.378l0.601 0.288zM9.758 12.267l-0.601-0.288c-0.043 0.090-0.066 0.189-0.066 0.288h0.667zM9.758 24h-0.667c0 0.368 0.298 0.667 0.667 0.667v-0.667zM22.748 24l0.007-0.667h-0.007v0.667zM25.051 22.187l-0.658-0.109-0 0.001 0.658 0.108zM26.641 12.587l0.658 0.109 0-0.001-0.658-0.108zM24.337 10.133v0.667l0.007-0-0.007-0.667zM9.758 24v0.667c0.368 0 0.667-0.299 0.667-0.667h-0.667zM9.758 12.267h0.667c0-0.368-0.298-0.667-0.667-0.667v0.667zM18.486 10.133v-4.267h-1.333v4.267h1.333zM18.486 5.867c0-2.183-1.894-3.867-4.121-3.867v1.333c1.589 0 2.788 1.181 2.788 2.533h1.333zM13.764 2.378l-4.606 9.6 1.202 0.577 4.606-9.6-1.202-0.577zM9.091 12.267v11.733h1.333v-11.733h-1.333zM9.758 24.667h12.99v-1.333h-12.99v1.333zM22.741 24.667c1.439 0.015 2.737-0.959 2.968-2.372l-1.316-0.215c-0.113 0.691-0.781 1.263-1.638 1.254l-0.014 1.333zM25.709 22.295l1.589-9.6-1.315-0.218-1.589 9.6 1.315 0.218zM27.299 12.694c0.136-0.831-0.131-1.667-0.711-2.284l-0.972 0.913c0.307 0.327 0.434 0.749 0.367 1.156l1.316 0.216zM26.588 10.41c-0.577-0.615-1.404-0.953-2.257-0.944l0.014 1.333c0.498-0.005 0.961 0.193 1.271 0.523l0.972-0.913zM24.337 9.467h-6.518v1.333h6.518v-1.333zM9.758 23.333h-3.455v1.333h3.455v-1.333zM6.303 23.333c-0.953 0-1.637-0.704-1.637-1.467h-1.333c0 1.594 1.379 2.8 2.97 2.8v-1.333zM4.667 21.867v-7.467h-1.333v7.467h1.333zM4.667 14.4c0-0.763 0.684-1.467 1.637-1.467v-1.333c-1.591 0-2.97 1.206-2.97 2.8h1.333zM6.303 12.933h3.455v-1.333h-3.455v1.333zM9.091 12.267v11.733h1.333v-11.733h-1.333z"></path>
</symbol>
<symbol id="icon-trash-2" viewBox="0 0 32 32">
<path fill="none" stroke="#bdbdbd" style="stroke: var(--color1, #bdbdbd)" stroke-linejoin="round" stroke-linecap="round" stroke-miterlimit="4" stroke-width="1.3333" d="M4 8h24"></path>
<path fill="#bdbdbd" style="fill: var(--color1, #bdbdbd)" d="M26 8c0-0.368-0.299-0.667-0.667-0.667s-0.667 0.298-0.667 0.667h1.333zM7.333 8c0-0.368-0.298-0.667-0.667-0.667s-0.667 0.298-0.667 0.667h1.333zM10 8c0 0.368 0.298 0.667 0.667 0.667s0.667-0.298 0.667-0.667h-1.333zM20.667 8c0 0.368 0.299 0.667 0.667 0.667s0.667-0.298 0.667-0.667h-1.333zM24.667 8v18.667h1.333v-18.667h-1.333zM24.667 26.667c0 1.105-0.895 2-2 2v1.333c1.841 0 3.333-1.492 3.333-3.333h-1.333zM22.667 28.667h-13.333v1.333h13.333v-1.333zM9.333 28.667c-1.105 0-2-0.895-2-2h-1.333c0 1.841 1.492 3.333 3.333 3.333v-1.333zM7.333 26.667v-18.667h-1.333v18.667h1.333zM11.333 8v-2.667h-1.333v2.667h1.333zM11.333 5.333c0-1.105 0.895-2 2-2v-1.333c-1.841 0-3.333 1.492-3.333 3.333h1.333zM13.333 3.333h5.333v-1.333h-5.333v1.333zM18.667 3.333c1.105 0 2 0.895 2 2h1.333c0-1.841-1.492-3.333-3.333-3.333v1.333zM20.667 5.333v2.667h1.333v-2.667h-1.333z"></path>
<path fill="none" stroke="#bdbdbd" style="stroke: var(--color1, #bdbdbd)" stroke-linejoin="round" stroke-linecap="round" stroke-miterlimit="4" stroke-width="1.3333" d="M13.333 14.667v8"></path>
<path fill="none" stroke="#bdbdbd" style="stroke: var(--color1, #bdbdbd)" stroke-linejoin="round" stroke-linecap="round" stroke-miterlimit="4" stroke-width="1.3333" d="M18.667 14.667v8"></path>
</symbol>
<symbol id="icon-Union" viewBox="0 0 32 32">
<path fill="#fff" style="fill: var(--color3, #fff)" d="M17.143 1.143h-2.286v13.714h-13.714v2.286h13.714v13.714h2.286v-13.714h13.714v-2.286h-13.714v-13.714z"></path>
</symbol>
<symbol id="icon-user" viewBox="0 0 32 32">
<path stroke-linejoin="round" stroke-linecap="round" stroke-miterlimit="4" stroke-width="1.3333" d="M26.667 28v-2.667c0-2.945-2.388-5.333-5.333-5.333h-10.667c-2.946 0-5.333 2.388-5.333 5.333v2.667"></path>
<path stroke-linejoin="round" stroke-linecap="round" stroke-miterlimit="4" stroke-width="1.3333" d="M16 14.667c2.945 0 5.333-2.388 5.333-5.333s-2.388-5.333-5.333-5.333c-2.946 0-5.333 2.388-5.333 5.333s2.388 5.333 5.333 5.333z"></path>
</symbol>
</defs>
</svg>
